<svg xmlns="http://www.w3.org/2000/svg" viewBox="0 0 50 50">
  <path fill="#FFF" d="M43,8.75V41.3C42.63,42.2,42.1,43,41,43c-2.95,0-5.9,0-8.85,0a.79.79,0,0,1-.23-.08V29.18c.28,0,.54-.05.8-.05,1,0,2.06,0,3.09,0,.6,0,.8-.21.83-.77s.16-1.23.24-1.85c.11-.94.22-1.89.35-2.95H31.92v-3.2c0-2.11.64-2.74,2.75-2.76h2.79c0-1.61,0-3.12,0-4.62,0-.14-.3-.37-.46-.38a42.06,42.06,0,0,0-4.89-.1,6,6,0,0,0-5.67,5,43.06,43.06,0,0,0-.29,5.09c0,.3,0,.6,0,.94-1.39,0-2.68,0-4,0-.22,0-.61.23-.61.36-.05,1.69,0,3.39,0,5.21h4.6V43H9.54C7.75,43,7,42.25,7,40.43Q7,25.21,7,10c0-1.39.3-2.45,1.69-3H41.26A2.7,2.7,0,0,1,43,8.75Z"/>
</svg>