<svg xmlns="http://www.w3.org/2000/svg" viewBox="0 0 50 50">
  <path fill="#FFF" class="cls-1" d="M18.46,34.78q-1.5,0-3,0c-.54,0-.74-.15-.73-.71,0-2.13,0-4.25,0-6.38s0-4.21,0-6.32c0-.56.16-.78.75-.76q1.47.06,2.94,0c.61,0,.8.2.8.79,0,2.54,0,5.09,0,7.63,0,1.67,0,3.34,0,5C19.24,34.61,19,34.8,18.46,34.78Zm-1.54-16a2.56,2.56,0,0,1-2.53-2.56A2.61,2.61,0,0,1,17,13.64a2.5,2.5,0,0,1,2.52,2.62A2.45,2.45,0,0,1,16.92,18.77ZM43,10.87C43,8.35,41.65,7,39.13,7H10.87C8.35,7,7,8.35,7,10.87V39.13C7,41.65,8.35,43,10.87,43H39.13C41.65,43,43,41.65,43,39.13ZM35,34.78c-1.09,0-2.17,0-3.25,0-.49,0-.66-.15-.66-.65,0-2.25,0-4.5,0-6.75A6.23,6.23,0,0,0,31,25.89a1.9,1.9,0,0,0-1.65-1.64,2.35,2.35,0,0,0-2.58,1.11,3.62,3.62,0,0,0-.38,1.56c-.14,2.31-.07,4.63-.08,6.94,0,.91,0,.91-.88.91s-1.92,0-2.88,0c-.47,0-.67-.12-.67-.63q0-6.45,0-12.88c0-.49.16-.67.65-.66q1.5,0,3,0c.51,0,.67.2.63.67,0,.3,0,.61,0,1,.35-.32.61-.58.89-.82a5.7,5.7,0,0,1,6.76-.13,5,5,0,0,1,1.7,3.9c.11,3,.09,6,.13,9C35.63,34.63,35.45,34.79,35,34.78Z"/>
</svg>