<svg xmlns="http://www.w3.org/2000/svg" viewBox="0 0 50 50">
  <path d="M21.11,7.53A11,11,0,0,1,27,8.93a.86.86,0,0,0,.78.1,9.06,9.06,0,0,1,11.77,9,.48.48,0,0,0,.35.53,5,5,0,0,1,1.73,8.24c-.28.3-.17.46,0,.72a8.7,8.7,0,0,1-4.14,12.17,8.84,8.84,0,0,1-3.36.71.51.51,0,0,0-.57.39,5.88,5.88,0,0,1-9.29,2.8.4.4,0,0,0-.57,0,7.64,7.64,0,0,1-8,.74,7.62,7.62,0,0,1-4.55-6.45c-.05-.42-.18-.55-.57-.64A7.35,7.35,0,0,1,6.87,25.05.79.79,0,0,0,7,24a6.79,6.79,0,0,1,4.75-9.73.84.84,0,0,0,.65-.52A9.9,9.9,0,0,1,21.11,7.53ZM32.54,35.41c.37,0,.68,0,1-.07a2.43,2.43,0,0,0,.6-.17A1.14,1.14,0,0,0,35,34a1.16,1.16,0,0,0-.89-1.17A5.53,5.53,0,0,0,33,32.59c-1.82-.18-2.42-.71-1.88-2.88a36.43,36.43,0,0,1,2.23-5.63,17.5,17.5,0,0,0,1.26-3.58A2.86,2.86,0,0,0,32.34,17a3.82,3.82,0,0,0-2.91.4.68.68,0,0,1-.92-.09l-.5-.47a2.5,2.5,0,0,0-3.53-.08c-.33.29-.65.59-1,.85a1.19,1.19,0,0,1-1.38.12c-.59-.31-1.19-.58-1.79-.86a2.86,2.86,0,0,0-1.89-.18,4.33,4.33,0,0,0-3.22,2.82c-1.4,3.54-2.46,7.19-3.5,10.84a3,3,0,0,0,2.07,3.82c1.94.57,3.22,0,4-1.79l2.61-6.53c.42-1.07.84-2.14,1.29-3.2A1.08,1.08,0,0,1,22.89,22a1.11,1.11,0,0,1,.71,1.22,4.11,4.11,0,0,1-.25.93c-.68,1.73-1.37,3.44-2.05,5.17a4.75,4.75,0,0,0-.42,1.34,1.27,1.27,0,0,0,.6,1.36,2.17,2.17,0,0,0,2.34-.26,4,4,0,0,0,.88-1.25l4.18-8.24a2.85,2.85,0,0,1,.59-.83.81.81,0,0,1,1-.16.73.73,0,0,1,.26.91,10.69,10.69,0,0,1-.53,1.32c-.91,2-2,3.92-2.8,5.95a4,4,0,0,0,1.3,4.83A6.82,6.82,0,0,0,32.54,35.41Z"/>
  <path d="M38.83,43.94a2.14,2.14,0,1,1-2.1-2.17A2.14,2.14,0,0,1,38.83,43.94Z"/>
  <path d="M.57,24a2,2,0,0,1,2-2.06,2,2,0,0,1,2.08,2,2.07,2.07,0,0,1-2,2.08A2,2,0,0,1,.57,24Z"/>
  <path d="M29.92,5a2,2,0,0,1-2,2A2.09,2.09,0,0,1,25.86,5a2,2,0,0,1,2-2A2,2,0,0,1,29.92,5Z"/>
  <path d="M42.91,17.49a1.74,1.74,0,1,1,1.75-1.73A1.74,1.74,0,0,1,42.91,17.49Z"/>
  <path d="M11.92,10.76a1.56,1.56,0,1,1-1.58-1.58A1.56,1.56,0,0,1,11.92,10.76Z"/>
  <path d="M25.12,47a1.39,1.39,0,0,1-1.31,1.37,1.35,1.35,0,0,1,0-2.69A1.35,1.35,0,0,1,25.12,47Z"/>
  <path d="M46,28.79a1.3,1.3,0,0,1,0-2.59,1.32,1.32,0,0,1,1.32,1.28A1.3,1.3,0,0,1,46,28.79Z"/>
  <path d="M15.89,2.76a1.15,1.15,0,0,1-1.07,1.11,1.11,1.11,0,0,1-1.13-1.1,1.08,1.08,0,0,1,1.06-1.1A1.11,1.11,0,0,1,15.89,2.76Z"/>
  <path d="M48.44,22.22a.92.92,0,0,1-.94-1,1,1,0,0,1,1-.95,1,1,0,0,1,1,1A1,1,0,0,1,48.44,22.22Z"/>
  <path d="M8.85,40.52a.9.9,0,0,1-1-1,1,1,0,0,1,1-1,.94.94,0,0,1,.92,1A.88.88,0,0,1,8.85,40.52Z"/>
</svg>