<svg xmlns="http://www.w3.org/2000/svg" viewBox="0 0 50 50">
  <path fill="#FFF" d="M7,37.2v-.29c3.65.06,7.13-.49,10.21-2.86-5.16-2.86-5.6-3.26-6.22-5.58l2.25-.26C9.2,25,7.92,23.05,8.33,20.6l2.63.69C8,16.21,7.64,14.1,9.32,11c4,4.65,8.91,7.6,15.13,8a7.29,7.29,0,0,1,0-1.63,16.06,16.06,0,0,1,1.3-4.35A7.07,7.07,0,0,1,36.2,11a2.69,2.69,0,0,0,3.07.38c.84-.42,1.75-.68,2.64-1l.19.27L39.63,14.3,43,13.36v.29c-2.26,2.08-4,4.41-3.8,7.78a3.31,3.31,0,0,1-.15.86c-2,8.79-6.77,15-15.42,17.39C17.79,41.31,12.24,40.21,7,37.2Z"/>
</svg>