<svg xmlns="http://www.w3.org/2000/svg" viewBox="0 0 100 100">
  <g>
    <path d="M1,86.8Q1,48.66,1,10.51C2,7.84,2.93,7.1,5.62,7.1c6.56,0,13.13,0,19.69,0,1.51,0,2.19.32,2.07,2a57,57,0,0,0,0,6.13c.05,1.32-.43,1.7-1.71,1.68-4.45-.06-8.89,0-13.34-.06-1.36,0-1.65.42-1.65,1.67q0,30.48,0,61c0,1.55.56,1.87,2,1.85,4.3-.08,8.61,0,12.91-.06,1.4,0,1.87.46,1.82,1.83-.08,2-.06,4.09,0,6.13,0,1.11-.39,1.49-1.48,1.48-6.92,0-13.83,0-20.75,0C2.66,90.61,1.57,89,1,86.8Z"/>
    <path d="M99,48.74V85.17c0,4.21-1.54,5.72-5.78,5.73-6.07,0-12.15-.07-18.22,0-1.9,0-2.51-.58-2.34-2.42a30.77,30.77,0,0,0,0-5.08c-.15-1.72.33-2.33,2.16-2.27,4.23.15,8.47,0,12.71.08,1.37,0,1.82-.36,1.81-1.79q-.06-30.49,0-61c0-1.3-.39-1.7-1.68-1.68-4.31.07-8.62,0-12.92.06-1.52,0-2.19-.34-2.09-2,.14-2.11.09-4.23,0-6.35,0-1.14.38-1.43,1.46-1.42,6.92,0,13.84,0,20.76,0,2.66,0,4.1,1.66,4.1,4.57Q99,30.2,99,48.74Z"/>
    <path d="M47.19,50.66Q41.34,61.19,35.7,71.85a2.78,2.78,0,0,1-2.89,1.81c-3.74-.13-7.48,0-11.22-.07-.65,0-1.67.51-1.81-.78-.51,0,17.34-31.58,18.47-33.41,1.29-2.09,2.37-4.31,3.51-6.49.38-.72.75-1.26,1.72-1.25,4.64.09,9.28.11,13.92.15C57.44,32,48.11,49,47.19,50.66Z"/>
    <path d="M80.42,29.73c0-5.23.08-6.23-2.92-6.23h-10c-3,0-2.49,3-2.49,6.51,0,4.58.38,8.85.53,13.26v.12c1,2.11,14.9,28.08,15,28.11C80.48,56.28,80.42,45,80.42,29.73Z"/>
    <path d="M79.81,72c1.16,1.74.31,1.7-1,1.67-4.09-.06-8.19-.09-12.28,0-1.41,0-1.75-.89-2.25-1.81-4.56-8.41-8.95-16.27-13.5-24.63-.18-.33,7.42-14.82,7.63-14.5C61,36.61,79.81,72,79.81,72h0"/>
    <path d="M19.77,70.2c0-15.31,0-29.22-.09-44.6,0-1.29.5-1.52,1.62-1.5,3.88,0,7.77.08,11.65,0,1.51,0,1.94.53,1.93,2,0,6.05,0,11.28,0,17.27C34.88,43.56,19.78,70.56,19.77,70.2Z"/>
  </g>
</svg>