<svg xmlns="http://www.w3.org/2000/svg" viewBox="0 0 100 100">
  <path fill="#547dbe" d="M1.06,49.5q0-18.16,0-36.32c0-3.88,1.24-5.13,5.05-5.13,6.44,0,12.88,0,19.33,0,1.58,0,2.14.43,2,2a43.82,43.82,0,0,0,0,5.73c.1,1.55-.34,2.11-2,2.06-4.17-.11-8.35.06-12.53-.08-1.74-.05-2.25.38-2.24,2.18.07,15.29,0,30.59,0,45.88,0,4.89.05,9.78,0,14.66,0,1.46.4,2,1.91,1.93,4.24-.09,8.49,0,12.74-.06,1.54,0,2.2.36,2.1,2a54.75,54.75,0,0,0,0,5.73c.05,1.25-.32,1.76-1.66,1.75-6.8-.06-13.6,0-20.39,0-2.65,0-4.24-1.65-4.32-4.48-.09-3.11,0-6.23,0-9.34Z"/>
  <path fill="#24b9a2" d="M99.22,11q0,13.79,0,27.57,0,23,0,46a20.85,20.85,0,0,1-.4,5,5.06,5.06,0,0,1-4.68,2.38c-6.43,0-12.87,0-19.31,0-1.49,0-2-.52-1.91-2a39.14,39.14,0,0,0,0-5.73c-.16-1.8.62-2.07,2.18-2,4.24.09,8.49,0,12.73.06,1.35,0,1.83-.33,1.83-1.78q-.07-30.57,0-61.13c0-1.48-.55-1.75-1.85-1.73-4.32.07-8.64,0-12.95.05-1.48,0-2-.44-1.93-1.93.11-2.12.08-4.25,0-6.37,0-1.05.23-1.5,1.4-1.49,7,.05,14,0,21,0C97.34,8,98.5,9.27,99.22,11Z"/>
  <path fill="#58c0ee" d="M50.26,46.76c-1.41,1.39-2,3.29-2.93,5Q41.47,62.28,35.81,73a2.78,2.78,0,0,1-2.9,1.82c-3.75-.13-7.5,0-11.25-.06-.64,0-1.67.51-1.81-.79,1.27-3.79,3.51-7.09,5.33-10.61,2.81-5.47,6-10.77,8.71-16.28.23-.47.31-1.16,1.09-1.09,1.73-1.46,2.25-3.68,3.39-5.51,1.29-2.1,2.37-4.33,3.51-6.51.38-.72.76-1.27,1.73-1.25,4.65.08,9.31.1,14,.14a1,1,0,0,1,0,.62A101.91,101.91,0,0,1,50.26,46.76Z"/>
  <path fill="#62c2a5" d="M80.64,73.19c0,1.15-.33,1.64-1.57,1.63-4.1-.06-8.2-.09-12.3,0-1.42,0-1.76-.89-2.26-1.81Q57.4,59.88,50.26,46.76c2-4.86,4.89-9.28,7.31-13.94,2.45,3.3,4,7.08,6.06,10.62.48.84.69,1.87,1.59,2.44s1.41-.33,0,0"/>
  <path fill="#547dbe" d="M35,46Q27.72,59.65,20.44,73.34c-.12.24-.39.39-.59.59q0-23.67-.09-47.33c0-1.3.5-1.52,1.62-1.51,3.89.05,7.78.08,11.67,0,1.52,0,2,.54,1.94,2C35,33.36,35,39.65,35,46Z"/>
  <path fill="#24b9a2" d="M65.22,45.89c-.34-2.52-.25-13.07-.34-18.52,0-1.51,1-2,3-2,3.61,0,6.91.2,10.51.08,2.49-.08,2.5.59,2.49,1.92,0,14.35,0,30.42,0,45.33a6.39,6.39,0,0,1-.08.94c0,.34-.3.33-.35.27-.23-.28-.53-.51-.35-.39-2-3.55-3.8-6.67-5.52-9.83-3-5.59-6-11.2-9-16.8A6,6,0,0,1,65.22,45.89Z"/>
</svg>